<?xml version="1.0" encoding="UTF-8"?>
<svg width="46px" height="46px" viewBox="0 0 46 46" version="1.1" xmlns="http://www.w3.org/2000/svg" xmlns:xlink="http://www.w3.org/1999/xlink">
    <!-- Generator: Sketch 48.1 (47250) - http://www.bohemiancoding.com/sketch -->
    <title>领取成功</title>
    <desc>Created with Sketch.</desc>
    <defs></defs>
    <g id="优购app-三级分类列表页-优惠卷弹窗单张" stroke="none" stroke-width="1" fill="none" fill-rule="evenodd" transform="translate(-272.000000, -325.000000)">
        <g id="弹窗">
            <g id="领取成功" transform="translate(272.000000, 323.000000)">
                <g transform="translate(0.000000, 2.000000)" id="Fill-">
                    <path d="M45.32,23.2755556 C45.32,10.6727467 35.3272533,0.68 22.7244444,0.68 C10.6727467,0.68 0.68,10.6727467 0.68,23.2755556 C0.68,35.3272533 10.6727467,45.32 22.7244444,45.32 C35.3272533,45.32 45.32,35.3272533 45.32,23.2755556 Z" fill="#333333"></path>
                    <path d="M11.8759566,24.1354708 L12.9022782,22.7389748 C12.980773,22.6321683 13.1309894,22.6092172 13.2377959,22.6877121 C13.2390953,22.6886671 13.2403851,22.6896352 13.241665,22.6906162 L19.2546572,27.2992298 C19.3436813,27.3674617 19.4680929,27.3649328 19.5542707,27.2931397 L34.1599978,15.1253877 C34.2549165,15.0463128 34.3943578,15.0522125 34.4822579,15.1390224 L35.4454052,16.0902234 C35.5397141,16.1833625 35.5406623,16.3353192 35.4475232,16.429628 C35.4467233,16.4304379 35.4459177,16.4312422 35.4451064,16.4320406 L19.5790567,32.0466035 C19.4845851,32.1395776 19.3326304,32.1383637 19.2396563,32.0438921 C19.2391408,32.0433684 19.2386278,32.0428423 19.2381173,32.0423139 L11.8967519,24.4443647 C11.8154594,24.360231 11.8066746,24.2297415 11.8759566,24.1354708 Z" fill="#FFFFFF"></path>
                </g>
            </g>
        </g>
    </g>
</svg>